<svg xmlns="http://www.w3.org/2000/svg" viewBox="0 0 144 144" role="img" aria-label="kelpie">
<g transform="translate(0,144) scale(0.1,-0.1)" fill="currentColor" stroke="none">
<path d="M570 1374 c-178 -38 -347 -170 -427 -334 -69 -141 -87 -272 -57 -418
43 -210 189 -394 389 -493 112 -54 190 -73 315 -73 125 0 201 17 316 74 118
58 289 223 254 245 -6 3 -28 -9 -51 -28 -97 -84 -239 -66 -239 30 0 61 67 95
116 58 30 -23 44 -18 44 15 0 92 -90 146 -193 116 -38 -11 -77 -36 -142 -90
-49 -42 -117 -90 -150 -108 -55 -30 -67 -33 -150 -33 -74 0 -98 5 -138 24 -72
36 -142 104 -176 173 l-31 61 60 30 c76 36 103 72 165 218 71 171 109 220 198
259 26 11 47 25 47 30 0 17 -41 11 -87 -11 -76 -37 -125 -109 -203 -301 -41
-101 -89 -154 -160 -178 -64 -22 -65 -29 -23 -118 70 -148 255 -250 402 -222
87 16 161 58 281 161 71 61 109 79 162 79 45 0 81 -18 98 -49 9 -17 6 -18 -35
-13 -82 9 -138 -58 -112 -134 19 -58 56 -79 137 -79 l68 0 -31 -27 c-50 -43
-175 -105 -257 -127 -92 -26 -226 -28 -319 -5 -255 62 -466 272 -517 515 -19
86 -14 226 10 302 72 230 272 400 501 425 46 5 61 11 63 25 4 21 -33 22 -128
1z M900 1303 c-14 -9 -40 -30 -57 -46 -29 -28 -39 -31 -106 -32 -104 -3 -164
-33 -272 -134 -65 -62 -97 -84 -130 -93 -68 -18 -60 -41 14 -36 l59 3 -15 -30
c-40 -76 -106 -135 -151 -135 -25 0 -38 -18 -24 -32 16 -16 79 9 124 50 37 33
118 158 118 181 0 6 -7 11 -15 11 -25 0 109 125 161 151 37 18 70 25 134 28
83 3 85 4 122 42 39 40 65 51 54 23 -3 -9 -9 -33 -12 -53 -6 -36 -4 -39 46
-76 34 -25 59 -53 70 -79 10 -23 54 -81 99 -131 91 -101 100 -131 56 -179 -35
-38 -84 -36 -114 5 -38 51 -107 89 -163 89 -86 0 -148 50 -148 121 0 44 -14
58 -30 29 -14 -27 3 -91 34 -127 21 -25 23 -30 11 -53 -39 -75 -23 -192 35
-262 32 -39 60 -50 60 -23 0 8 -4 15 -10 15 -5 0 -23 24 -40 53 -33 57 -40
135 -19 196 10 29 14 31 43 25 17 -4 44 -6 60 -6 41 1 103 -33 144 -79 31 -35
40 -39 82 -39 33 0 53 6 69 21 31 29 54 86 46 116 -3 13 -41 63 -85 112 -43
48 -88 109 -100 134 -14 30 -39 60 -71 83 -27 20 -49 36 -49 37 0 1 7 24 15
51 8 27 15 57 15 68 0 23 -27 24 -60 1z M895 1030 c-3 -6 2 -13 12 -16 10 -3
28 -10 41 -15 30 -12 32 -12 32 6 0 27 -71 48 -85 25z M1110 810 c0 -5 8 -19
17 -30 13 -14 20 -17 30 -8 11 9 11 14 -3 29 -18 20 -44 25 -44 9z M810 276
c-149 -60 -151 -60 -275 -44 -29 4 -25 -25 5 -33 62 -17 141 -9 218 22 99 40
158 42 234 7 53 -25 68 -26 68 -7 0 5 -23 20 -52 35 -63 32 -148 40 -198 20z"/>
</g>
</svg>
